<svg id="visual" viewBox="0 0 900 600" width="900" height="600" xmlns="http://www.w3.org/2000/svg" xmlns:xlink="http://www.w3.org/1999/xlink" version="1.1"><rect x="0" y="0" width="900" height="600" fill="#002233"></rect><path d="M0 434L21.5 438.5C43 443 86 452 128.8 459.2C171.7 466.3 214.3 471.7 257.2 460.8C300 450 343 423 385.8 409.8C428.7 396.7 471.3 397.3 514.2 407.8C557 418.3 600 438.7 642.8 444.2C685.7 449.7 728.3 440.3 771.2 447.5C814 454.7 857 478.3 878.5 490.2L900 502L900 601L878.5 601C857 601 814 601 771.2 601C728.3 601 685.7 601 642.8 601C600 601 557 601 514.2 601C471.3 601 428.7 601 385.8 601C343 601 300 601 257.2 601C214.3 601 171.7 601 128.8 601C86 601 43 601 21.5 601L0 601Z" fill="#0066FF" stroke-linecap="round" stroke-linejoin="miter"></path></svg>